<?xml version="1.0" encoding="utf-8"?>
<!-- Generator: Adobe Illustrator 26.0.1, SVG Export Plug-In . SVG Version: 6.00 Build 0)  -->
<svg version="1.1" id="Layer_1" xmlns="http://www.w3.org/2000/svg" xmlns:xlink="http://www.w3.org/1999/xlink" x="0px" y="0px"
	 viewBox="0 0 800 800" style="enable-background:new 0 0 800 800;" xml:space="preserve">
<g>
	<path d="M502.92,312.66c-4.27,0-7.84-3.31-8.12-7.63l-7.56-114.89c-0.29-4.5,3.12-8.38,7.61-8.67c4.4-0.34,8.38,3.1,8.67,7.6
		l7.55,114.9c0.29,4.49-3.12,8.37-7.59,8.66L502.92,312.66z"/>
	<path d="M520.97,170.74c0,15.3-12.37,27.68-27.66,27.68c-15.29,0-27.68-12.38-27.68-27.68c0-15.29,12.39-27.67,27.68-27.67
		C508.61,143.07,520.97,155.45,520.97,170.74"/>
	<path d="M502.56,304.27c-2.51,0-4.99-1.16-6.59-3.34c-2.66-3.64-1.87-8.74,1.75-11.39l87.23-63.75c3.64-2.66,8.73-1.86,11.4,1.77
		c2.65,3.64,1.86,8.75-1.77,11.41l-87.21,63.73C505.92,303.75,504.22,304.27,502.56,304.27"/>
	<path d="M637.56,218.54c0,14.58-11.81,26.42-26.41,26.42c-14.57,0-26.42-11.84-26.42-26.42c0-14.6,11.84-26.42,26.42-26.42
		C625.74,192.12,637.56,203.94,637.56,218.54"/>
	<path d="M270.57,493.95c-30.72,0-63.52-3.18-83.58-13.19c-28.27-14.15-58.48-46.17-61.56-80c-2.67-23.81-1.19-49.74,30-60.14
		c28.3-10.3,68.03-4.49,94.99,3.61c-6.92-42.67-6.38-117.37,31.34-138.92l0.67-0.34c31.31-14.23,97.39-7.2,116.58,28
		c16.76,31.09,12.16,79.89,8.48,119.09c-0.79,8.53-1.54,16.64-2.04,24.02l-16.28-1.07c0.5-7.53,1.26-15.79,2.09-24.47
		c3.47-37.02,7.79-83.08-6.57-109.79c-13.52-24.78-67.23-33.51-95.14-21.08c-30.16,17.77-29.62,93.37-21.3,131.22
		c16.83,8.54,22.7,21,20.95,30.1c-1.19,6.32-6.03,10.69-12.01,10.86c-4.72,0.04-16-2.33-22.4-27.91l-0.37-1.22
		c-27.57-10.15-68.54-15.82-93.62-6.7c-17.1,5.71-22.08,16.97-19.15,43.11c2.53,27.75,29.01,55.2,52.64,67.04
		c29.58,14.78,98.95,13.15,136.5,7.38l2.48,16.13C318.94,491.87,295.41,493.95,270.57,493.95"/>
	<path d="M369.36,402.13c-70.7,78.42-118.29,150.72-106.31,161.52c12,10.81,79.01-44,149.69-122.41
		c70.73-78.39,118.28-150.73,106.34-161.52C507.11,268.93,440.01,323.7,369.36,402.13"/>
	<path d="M490.39,613.85c-30.82,0-61.04-8.66-77.74-18.67c-22.31-12.77-45.74-40.2-64.57-62.23c-10.53-12.34-19.64-23-26.19-28.44
		c-3.46-2.9-3.92-8.03-1.05-11.49c2.91-3.47,8.03-3.93,11.5-1.05c7.6,6.33,17.14,17.48,28.16,30.39
		c17.99,21.08,40.39,47.31,60.41,58.74c24.06,14.44,98.2,29.96,133.29-5.15c25.67-25.67,16.86-54.06,9.32-68.71
		c-13.21-25.66-40.45-45.07-62.52-45.7c-3.1,0.36-5.82,0.55-8.1,0.55c-4.25,0-7.77-3.26-8.12-7.48c-0.34-4.23,2.59-8.02,6.78-8.72
		c2.81-0.46,5.75-0.61,8.61-0.67c25.86-3.37,86.75-21.42,107.18-46.86c4.98-6.2,6.8-12.02,5.5-17.79
		c-6.1-27.47-76.92-20.92-114.97-17.41c-11.91,1.11-22.22,2.06-29.35,2.06c-4.5,0-8.14-3.66-8.14-8.16c0-4.51,3.64-8.15,8.14-8.15
		c6.38,0,16.33-0.93,27.86-1.99c49.06-4.55,123.18-11.39,132.41,30.12c2.37,10.77-0.56,21.36-8.73,31.53
		c-16.68,20.81-54.76,37.07-86.15,45.97c17.7,9.5,34.01,25.56,44.14,45.24c16.29,31.64,11.8,63.6-12.3,87.7
		C546.38,606.83,518.14,613.85,490.39,613.85"/>
</g>
</svg>
